<svg enable-background="new 0 0 20 20" height="20" viewBox="0 0 20 20" width="20" xmlns="http://www.w3.org/2000/svg"><path d="m0 0h20v20h-20z" fill="none"/><path d="m12.5 8 .79-1.72 1.71-.78-1.71-.78-.79-1.72-.76 1.72-1.74.78 1.74.78z"/><path d="m4 10 .4-1.6 1.6-.4-1.6-.4-.4-1.6-.4 1.6-1.6.4 1.6.4z"/><path d="m16.5 6c-1.07 0-1.84 1.12-1.35 2.14l-3.01 3.01c-.52-.25-.99-.14-1.29 0l-1.01-1.01c.1-.19.16-.41.16-.64 0-.83-.67-1.5-1.5-1.5s-1.5.67-1.5 1.5c0 .23.06.45.15.64l-3.01 3.01c-.19-.09-.41-.15-.64-.15-.83 0-1.5.67-1.5 1.5s.67 1.5 1.5 1.5 1.5-.67 1.5-1.5c0-.23-.06-.45-.15-.64l3.01-3.01c.52.25.99.14 1.29 0l1.01 1.01c-.1.19-.16.41-.16.64 0 .83.67 1.5 1.5 1.5s1.5-.67 1.5-1.5c0-.23-.06-.45-.15-.64l3.01-3.01c1.03.5 2.14-.29 2.14-1.35 0-.83-.67-1.5-1.5-1.5z"/></svg>